# xmcd
#
# Track frame offsets:
#	150
#	20317
#	30812
#	41897
#	61912
#	76377
#	86502
#	93102
#	106615
#	121910
#	131360
#	142160
#	154875
#	192410
#	222862
#	263017
#
# Disc length: 4151 seconds
#
# Revision: 1
# Processed by: cddbd v1.5.1PL0 Copyright (c) Steve Scherf et al.
# Submitted via: CDex 1.50Beta5
#
DISCID=c8103510
DTITLE=Antonin Dvorak - Dvorak: Cypresses - String Quartet No. 14
DYEAR=1900
DGENRE=Chamber
TTITLE0=Cypresses (Ohlas p将ソsn将ソ [Echoes of Songs]), for string quartet (arr. from Cypresses, B. 11), B. 152: Moderato
TTITLE1=Cypresses (Ohlas p将ソsn将ソ [Echoes of Songs]), for string quartet (arr. from Cypresses, B. 11), B. 152: Allegro ma non troppo
TTITLE2=Cypresses (Ohlas p将ソsn将ソ [Echoes of Songs]), for string quartet (arr. from Cypresses, B. 11), B. 152: Andante con moto
TTITLE3=Cypresses (Ohlas p将ソsn将ソ [Echoes of Songs]), for string quartet (arr. from Cypresses, B. 11), B. 152: Poco adagio
TTITLE4=Cypresses (Ohlas p将ソsn将ソ [Echoes of Songs]), for string quartet (arr. from Cypresses, B. 11), B. 152: Andante
TTITLE5=Cypresses (Ohlas p将ソsn将ソ [Echoes of Songs]), for string quartet (arr. from Cypresses, B. 11), B. 152: Andante moderato
TTITLE6=Cypresses (Ohlas p将ソsn将ソ [Echoes of Songs]), for string quartet (arr. from Cypresses, B. 11), B. 152: Andante con moto
TTITLE7=Cypresses (Ohlas p将ソsn将ソ [Echoes of Songs]), for string quartet (arr. from Cypresses, B. 11), B. 152: Lento
TTITLE8=Cypresses (Ohlas p将ソsn将ソ [Echoes of Songs]), for string quartet (arr. from Cypresses, B. 11), B. 152: Moderato
TTITLE9=Cypresses (Ohlas p将ソsn将ソ [Echoes of Songs]), for string quartet (arr. from Cypresses, B. 11), B. 152: Andante maestoso
TTITLE10=Cypresses (Ohlas p将ソsn将ソ [Echoes of Songs]), for string quartet (arr. from Cypresses, B. 11), B. 152: Allegro scherzando
TTITLE11=Cypresses (Ohlas p将ソsn将ソ [Echoes of Songs]), for string quartet (arr. from Cypresses, B. 11), B. 152: Allegro animato
TTITLE12=String Quartet No. 14 in A flat major, B. 193 (Op. 105): Adagio ma non troppo... Allegro appassionato
TTITLE13=String Quartet No. 14 in A flat major, B. 193 (Op. 105): Molto vivace
TTITLE14=String Quartet No. 14 in A flat major, B. 193 (Op. 105): Lento e molto cantabile
TTITLE15=String Quartet No. 14 in A flat major, B. 193 (Op. 105): Allegro non tanto
EXTD=
EXTT0=
EXTT1=
EXTT2=
EXTT3=
EXTT4=
EXTT5=
EXTT6=
EXTT7=
EXTT8=
EXTT9=
EXTT10=
EXTT11=
EXTT12=
EXTT13=
EXTT14=
EXTT15=
PLAYORDER=
